<?xml version="1.0" standalone="no"?>
<!DOCTYPE svg PUBLIC "-//W3C//DTD SVG 20010904//EN"
 "http://www.w3.org/TR/2001/REC-SVG-20010904/DTD/svg10.dtd">
<svg version="1.0" xmlns="http://www.w3.org/2000/svg"
 width="580.000000pt" height="306.000000pt" viewBox="0 0 580.000000 306.000000"
 preserveAspectRatio="xMidYMid meet">
<metadata>
Created by potrace 1.16, written by Peter Selinger 2001-2019
</metadata>
<g transform="translate(0.000000,306.000000) scale(0.100000,-0.100000)"
fill="#000000" stroke="none">
<path d="M4116 2345 c-83 -135 -156 -251 -163 -256 -13 -11 -17 -5 -127 173
-45 75 -27 89 -163 -132 -52 -85 -115 -188 -140 -227 -24 -40 -48 -73 -53 -73
-5 0 -34 42 -65 93 -32 50 -64 103 -73 116 l-15 25 -27 -32 c-15 -18 -33 -45
-41 -60 -13 -24 -97 -164 -199 -327 -21 -33 -136 -220 -255 -415 -343 -560
-348 -567 -390 -633 l-40 -62 -1006 -5 -1006 -5 -82 -99 c-46 -56 -78 -103
-74 -107 5 -5 524 -8 1168 -7 l1158 3 134 220 c136 224 199 327 372 610 274
447 279 455 291 455 5 0 15 -10 21 -22 7 -13 81 -137 166 -276 86 -139 152
-256 149 -259 -3 -3 -22 -9 -42 -12 -32 -5 -42 -14 -80 -76 -25 -38 -56 -90
-69 -115 -14 -25 -52 -88 -85 -140 -33 -52 -60 -101 -60 -107 0 -10 67 -13
304 -13 167 0 311 -3 320 -6 9 -3 16 -12 16 -20 0 -12 -58 -14 -356 -14 -306
0 -355 2 -351 14 3 8 31 56 62 107 57 94 63 121 23 118 -54 -5 -87 1 -82 14 3
8 -2 20 -11 27 -12 10 -18 10 -30 0 -9 -7 -14 -19 -11 -27 4 -9 -5 -13 -33
-13 -22 0 -46 -3 -55 -6 -17 -6 -276 -431 -276 -452 0 -9 170 -12 764 -12 444
0 767 4 770 9 3 5 -26 59 -64 120 -39 62 -70 118 -70 126 0 13 43 15 305 15
168 0 305 2 305 5 0 2 -31 55 -70 118 -38 63 -70 119 -70 125 0 9 81 12 310
12 275 0 310 2 310 16 0 14 -41 83 -295 496 -49 82 -177 291 -284 465 -403
659 -473 773 -480 773 -3 0 -73 -110 -155 -245z m268 -377 c55 -90 113 -185
131 -213 33 -52 269 -438 295 -484 8 -14 36 -60 63 -102 26 -42 47 -81 47 -87
0 -9 -50 -12 -183 -12 l-183 0 -68 113 c-37 61 -104 173 -150 247 -45 74 -114
187 -152 250 -39 63 -76 124 -83 135 -11 18 -5 33 55 130 103 169 114 185 122
185 4 0 52 -73 106 -162z m-539 -175 c26 -43 65 -105 85 -138 134 -216 200
-326 200 -335 0 -5 -10 -10 -23 -10 -32 0 -48 -18 -119 -133 -50 -82 -63 -96
-74 -85 -20 20 -304 490 -300 497 23 47 170 281 176 281 4 0 29 -35 55 -77z"/>
<path d="M1275 1660 c3 -5 12 -10 20 -10 8 0 17 -5 20 -10 11 -18 -298 -447
-352 -490 -14 -11 -34 -20 -44 -20 -11 0 -19 -4 -19 -10 0 -6 83 -10 228 -10
l228 0 36 48 c48 64 72 102 63 102 -3 0 -25 -15 -48 -34 -76 -62 -120 -78
-221 -84 -62 -3 -96 -1 -100 6 -10 17 19 66 91 160 l64 82 60 0 c65 0 83 -15
61 -51 -18 -28 -14 -34 8 -14 21 19 124 165 116 165 -3 0 -16 -10 -30 -23 -42
-39 -155 -63 -171 -37 -4 6 11 34 33 63 21 29 54 73 72 100 l33 47 87 0 c104
0 126 -11 117 -58 -4 -18 -3 -32 1 -32 10 0 72 93 72 108 0 9 -52 12 -216 12
-141 0 -213 -3 -209 -10z"/>
<path d="M1880 1661 c0 -5 9 -13 20 -16 31 -10 23 -35 -36 -110 -30 -38 -76
-99 -101 -135 -112 -156 -184 -239 -223 -257 -22 -10 -40 -21 -40 -25 0 -5 38
-8 85 -8 50 0 85 4 85 10 0 6 -7 10 -15 10 -23 0 -28 25 -11 57 8 16 67 99
130 184 150 201 146 195 146 180 0 -13 -49 -176 -100 -334 -24 -73 -26 -89
-15 -94 15 -5 196 144 388 320 59 55 110 97 113 94 7 -7 -55 -97 -169 -245
-96 -125 -122 -150 -165 -158 -73 -14 -37 -24 85 -24 127 0 128 1 103 19 -32
25 -33 24 140 261 163 225 183 247 221 255 58 13 39 25 -38 25 l-79 0 -114
-102 c-63 -55 -133 -117 -156 -137 -23 -20 -72 -63 -109 -96 -74 -65 -95 -80
-95 -68 0 13 48 176 76 261 13 40 25 87 26 105 l3 32 -77 3 c-46 2 -78 -1 -78
-7z"/>
<path d="M2769 1651 c21 -16 22 -21 11 -42 -20 -37 -156 -233 -236 -339 -80
-106 -107 -134 -144 -149 -19 -7 1 -10 84 -10 97 -1 108 1 90 13 -29 21 -15
47 133 251 161 220 205 272 246 284 24 7 2 9 -88 10 -118 1 -120 0 -96 -18z"/>
<path d="M736 953 c-42 -54 -76 -104 -76 -110 0 -10 189 -13 914 -13 l914 0
20 33 c10 17 38 62 61 99 22 37 41 72 41 78 0 7 -296 10 -899 10 l-898 0 -77
-97z"/>
<path d="M590 768 c-45 -48 -152 -189 -147 -195 3 -3 421 -5 929 -4 508 1 928
1 934 1 12 0 134 192 134 210 0 7 -326 10 -915 10 l-914 0 -21 -22z"/>
</g>
</svg>
